<svg id="Layer_1" data-name="Layer 1" xmlns="http://www.w3.org/2000/svg" viewBox="0 0 180 54.45"><defs><style>.cls-1{fill:#231f20;}</style></defs><title>Untitled-1</title><path class="cls-1" d="M45.67,39.32H49V42.7H48.11V40.92l-2.37,2.34a3.09,3.09,0,0,1,.3,1.31,3,3,0,0,1-2.44,3v1.22H45.3v1.08H43.61v1.5H42.49v-1.5H40.8V48.74h1.69V47.52a2.86,2.86,0,0,1-1.75-1A2.93,2.93,0,0,1,40,44.57a3.09,3.09,0,0,1,.3-1.31l-0.52-.52L39,43.59l-0.77-.77L39.06,42,38,40.92V42.7H37V39.32h3.38v0.94H38.78l1,1,0.84-.84,0.77,0.77L40.56,42l0.4,0.4A2.94,2.94,0,0,1,43,41.57a2.89,2.89,0,0,1,1.73.54l0.35,0.3,2.18-2.16H45.67V39.32ZM41.73,45.9a1.87,1.87,0,1,0-.55-1.32A1.81,1.81,0,0,0,41.73,45.9Z" transform="translate(-16.05 -39.32)"/></svg>